<?xml version="1.0" standalone="no"?>
<!DOCTYPE svg PUBLIC "-//W3C//DTD SVG 20010904//EN"
 "http://www.w3.org/TR/2001/REC-SVG-20010904/DTD/svg10.dtd">
<svg version="1.0" xmlns="http://www.w3.org/2000/svg"
 width="512.000000pt" height="512.000000pt" viewBox="0 0 512.000000 512.000000"
 preserveAspectRatio="xMidYMid meet">
<metadata>
Created by potrace 1.14, written by Peter Selinger 2001-2017
</metadata>
<g transform="translate(0.000000,512.000000) scale(0.100000,-0.100000)"
fill="#000000" stroke="none">
<path d="M1180 5105 c-134 -23 -144 -26 -234 -56 -265 -88 -497 -255 -663
-476 -105 -138 -162 -246 -213 -403 -69 -210 -64 -94 -67 -1575 -2 -1300 -2
-1343 18 -1450 85 -470 386 -848 826 -1036 106 -46 253 -85 363 -99 42 -5 663
-8 1400 -6 l1325 2 105 26 c219 55 393 138 555 266 271 215 441 502 505 854
18 98 19 165 17 1443 -3 1471 1 1352 -63 1564 -136 447 -529 813 -988 921 -45
11 -94 23 -111 27 -16 4 -631 8 -1365 9 -1061 2 -1350 -1 -1410 -11z"/>
</g>
</svg>
