<svg xmlns="http://www.w3.org/2000/svg" width="682.667" height="682.667" version="1.0" viewBox="0 0 512 512"><path d="M118 1.5c-13.4 2.3-14.4 2.6-23.4 5.6-26.5 8.8-49.7 25.5-66.3 47.6C17.8 68.5 12.1 79.3 7 95 .1 116 .6 104.4.3 252.5c-.2 130-.2 134.3 1.8 145 8.5 47 38.6 84.8 82.6 103.6 10.6 4.6 25.3 8.5 36.3 9.9 4.2.5 66.3.8 140 .6l132.5-.2 10.5-2.6c21.9-5.5 39.3-13.8 55.5-26.6 27.1-21.5 44.1-50.2 50.5-85.4 1.8-9.8 1.9-16.5 1.7-144.3-.3-147.1.1-135.2-6.3-156.4-13.6-44.7-52.9-81.3-98.8-92.1-4.5-1.1-9.4-2.3-11.1-2.7C393.9.9 332.4.5 259 .4 152.9.2 124 .5 118 1.5"/></svg>